<?xml version="1.0" encoding="utf-8"?>
<!-- Generator: Adobe Illustrator 21.0.2, SVG Export Plug-In . SVG Version: 6.00 Build 0)  -->
<!DOCTYPE svg PUBLIC "-//W3C//DTD SVG 1.1//EN" "http://www.w3.org/Graphics/SVG/1.1/DTD/svg11.dtd">
<svg version="1.1" id="Layer_1" xmlns="http://www.w3.org/2000/svg" xmlns:xlink="http://www.w3.org/1999/xlink" x="0px" y="0px"
	 viewBox="0 0 473.5 162.7" style="enable-background:new 0 0 473.5 162.7;" xml:space="preserve">
<style type="text/css">
	.st0{fill:#E61D77;}
	.st1{fill:none;stroke:#E51771;stroke-width:1.683;}
	.st2{fill:#77777A;}
	.st3{fill:#868686;}
	.st4{fill-rule:evenodd;clip-rule:evenodd;fill:#E61D77;}
</style>
<g>
	<path class="st0" d="M209.1,107.1c-11.1,1.9-17.4-4.5-18.8-12.7c-1.4-8.2,2.3-16.3,13.4-18.3c11.1-1.9,17.3,4.5,18.8,12.6
		C223.9,96.9,220.2,105.1,209.1,107.1 M205.1,84.3c-4.3,0.7-4.1,5-3.6,8.1c0.5,3.1,1.8,7.2,6.1,6.5c4.3-0.7,4.1-5,3.5-8.2
		C210.7,87.6,209.4,83.5,205.1,84.3"/>
	<path class="st1" d="M209.1,107.1c-11.1,1.9-17.4-4.5-18.8-12.7c-1.4-8.2,2.3-16.3,13.4-18.3c11.1-1.9,17.3,4.5,18.8,12.6
		C223.9,96.9,220.2,105.1,209.1,107.1z M205.1,84.3c-4.3,0.7-4.1,5-3.6,8.1c0.5,3.1,1.8,7.2,6.1,6.5c4.3-0.7,4.1-5,3.5-8.2
		C210.7,87.6,209.4,83.5,205.1,84.3z"/>
	<path class="st0" d="M223.6,73.4l10.8-1.9l0.6,3.2l0.1,0c1.1-2.1,2.4-4.5,7.9-5.5c8.3-1.5,13.8,6.1,15.1,13.5
		c1.2,6.9,0,15.8-9.9,17.5c-3.4,0.6-6.6-0.4-8.8-2.6l-0.1,0l2.2,12.8l-11.2,2L223.6,73.4z M243.3,92.7c4-0.7,4.3-4.7,3.7-8.1
		c-0.6-3.5-2.2-7.2-6.2-6.5c-4,0.7-4.3,4.7-3.7,8.2C237.7,89.7,239.2,93.4,243.3,92.7"/>
	<path class="st1" d="M223.6,73.4l10.8-1.9l0.6,3.2l0.1,0c1.1-2.1,2.4-4.5,7.9-5.5c8.3-1.5,13.8,6.1,15.1,13.5
		c1.2,6.9,0,15.8-9.9,17.5c-3.4,0.6-6.6-0.4-8.8-2.6l-0.1,0l2.2,12.8l-11.2,2L223.6,73.4z M243.3,92.7c4-0.7,4.3-4.7,3.7-8.1
		c-0.6-3.5-2.2-7.2-6.2-6.5c-4,0.7-4.3,4.7-3.7,8.2C237.7,89.7,239.2,93.4,243.3,92.7z"/>
	<path class="st0" d="M259.3,67.2l10.8-1.9l0.6,3.2l0.1,0c1.1-2.1,2.4-4.5,7.9-5.5c8.3-1.5,13.8,6.1,15.1,13.5
		c1.2,6.9,0,15.8-9.9,17.5c-3.4,0.6-6.6-0.4-8.8-2.6l-0.1,0l2.2,12.8l-11.2,2L259.3,67.2z M278.9,86.4c4-0.7,4.3-4.7,3.7-8.1
		c-0.6-3.5-2.2-7.2-6.2-6.5c-4,0.7-4.3,4.7-3.7,8.2C273.3,83.5,274.9,87.1,278.9,86.4"/>
	<path class="st1" d="M259.3,67.2l10.8-1.9l0.6,3.2l0.1,0c1.1-2.1,2.4-4.5,7.9-5.5c8.3-1.5,13.8,6.1,15.1,13.5
		c1.2,6.9,0,15.8-9.9,17.5c-3.4,0.6-6.6-0.4-8.8-2.6l-0.1,0l2.2,12.8l-11.2,2L259.3,67.2z M278.9,86.4c4-0.7,4.3-4.7,3.7-8.1
		c-0.6-3.5-2.2-7.2-6.2-6.5c-4,0.7-4.3,4.7-3.7,8.2C273.3,83.5,274.9,87.1,278.9,86.4z"/>
	<path class="st0" d="M327.7,78.8c0.4,2.2,0.9,4.7,2.5,6.4l-11.5,2c-0.4-0.7-0.8-1.9-0.9-2.7l-0.1,0c-1.9,3.1-5.2,4.5-8.9,5.2
		c-5.7,1-10.9-0.9-12-7.1c-1.6-9.3,9.3-10.9,14.9-13c1.5-0.6,2.9-1.3,2.6-3.1c-0.3-2-2.4-2.4-4.2-2.1c-3.5,0.6-3.8,2.5-3.7,3.7
		l-10.5,1.8c-0.6-4.2,1.1-7,3.7-8.8c2.6-1.9,6.3-2.9,9.8-3.5c14.1-2.5,15,3.4,16,9.1L327.7,78.8z M315.7,74
		c-1.2,0.9-2.7,1.6-4.2,2.2c-2.4,1-3.6,1.9-3.2,3.8c0.2,1.4,2,2.5,4,2.1c2.6-0.4,4.3-2.3,3.9-5.4L315.7,74z"/>
	<path class="st1" d="M327.7,78.8c0.4,2.2,0.9,4.7,2.5,6.4l-11.5,2c-0.4-0.7-0.8-1.9-0.9-2.7l-0.1,0c-1.9,3.1-5.2,4.5-8.9,5.2
		c-5.7,1-10.9-0.9-12-7.1c-1.6-9.3,9.3-10.9,14.9-13c1.5-0.6,2.9-1.3,2.6-3.1c-0.3-2-2.4-2.4-4.2-2.1c-3.5,0.6-3.8,2.5-3.7,3.7
		l-10.5,1.8c-0.6-4.2,1.1-7,3.7-8.8c2.6-1.9,6.3-2.9,9.8-3.5c14.1-2.5,15,3.4,16,9.1L327.7,78.8z M315.7,74
		c-1.2,0.9-2.7,1.6-4.2,2.2c-2.4,1-3.6,1.9-3.2,3.8c0.2,1.4,2,2.5,4,2.1c2.6-0.4,4.3-2.3,3.9-5.4L315.7,74z"/>
	<polygon class="st0" points="326.8,44 358.1,38.5 359.9,48.9 341.1,52.2 342,57.2 358.1,54.4 359.8,64.1 343.6,66.9 346.3,82.3 
		333.8,84.5 	"/>
	<polygon class="st1" points="326.8,44 358.1,38.5 359.9,48.9 341.1,52.2 342,57.2 358.1,54.4 359.8,64.1 343.6,66.9 346.3,82.3 
		333.8,84.5 	"/>
	<path class="st0" d="M375.7,64.6c0.9,3.3,3.2,5.4,6.7,4.7c1.8-0.3,3.7-1.3,4.3-2.9l10.5-1.8c-1.2,6.8-6.8,10.8-13.5,12
		c-9.4,1.6-17.5-2.7-19.2-12.5c-1.5-8.6,3.5-16.7,12.8-18.3c11.7-2,17.9,3.6,19.9,15.1L375.7,64.6z M385.4,56.9
		c-0.5-2.7-2.9-4.6-5.8-4.1c-3.3,0.6-5,2.7-4.9,6L385.4,56.9z"/>
	<path class="st1" d="M375.7,64.6c0.9,3.3,3.2,5.4,6.7,4.7c1.8-0.3,3.7-1.3,4.3-2.9l10.5-1.8c-1.2,6.8-6.8,10.8-13.5,12
		c-9.4,1.6-17.5-2.7-19.2-12.5c-1.5-8.6,3.5-16.7,12.8-18.3c11.7-2,17.9,3.6,19.9,15.1L375.7,64.6z M385.4,56.9
		c-0.5-2.7-2.9-4.6-5.8-4.1c-3.3,0.6-5,2.7-4.9,6L385.4,56.9z"/>
	<path class="st0" d="M410.3,58.6c0.9,3.3,3.2,5.4,6.7,4.7c1.8-0.3,3.7-1.3,4.3-2.9l10.5-1.8c-1.2,6.8-6.8,10.8-13.5,12
		c-9.4,1.6-17.5-2.7-19.2-12.5c-1.5-8.6,3.5-16.7,12.8-18.3c11.7-2,17.9,3.6,19.9,15.1L410.3,58.6z M420.1,50.8
		c-0.5-2.7-2.9-4.6-5.8-4.1c-3.4,0.6-5,2.7-4.9,6L420.1,50.8z"/>
	<path class="st1" d="M410.3,58.6c0.9,3.3,3.2,5.4,6.7,4.7c1.8-0.3,3.7-1.3,4.3-2.9l10.5-1.8c-1.2,6.8-6.8,10.8-13.5,12
		c-9.4,1.6-17.5-2.7-19.2-12.5c-1.5-8.6,3.5-16.7,12.8-18.3c11.7-2,17.9,3.6,19.9,15.1L410.3,58.6z M420.1,50.8
		c-0.5-2.7-2.9-4.6-5.8-4.1c-3.4,0.6-5,2.7-4.9,6L420.1,50.8z"/>
	
		<rect x="434.2" y="24.5" transform="matrix(0.9851 -0.1721 0.1721 0.9851 -1.1978 76.3594)" class="st0" width="11.4" height="41.2"/>
	
		<rect x="434.2" y="24.5" transform="matrix(0.9851 -0.1721 0.1721 0.9851 -1.1978 76.3594)" class="st1" width="11.4" height="41.2"/>
	<polygon class="st0" points="471.4,49.5 459.7,51.4 452.5,15.1 466.6,12.8 	"/>
	<polygon class="st0" points="473.5,65.4 462.9,67.1 460.3,55.5 472.1,53.5 	"/>
	<path class="st2" d="M136.9,88.8c-0.3,0-0.4-0.4-0.8-0.4C136,88.8,136.7,89.1,136.9,88.8"/>
	<path class="st3" d="M110.2,122.9c-0.3,0-0.4-0.2-0.6-0.3c-0.6-0.1-0.9,0.1-1.4,0.1c-1.8,1.3-5.1,1.1-6.6,2.7
		c0.4,1.1,0.4,1.9-0.6,2.3c1.3-2.7-1.3-3.5-1.7-5.6c0.5-0.6,0.4-1.1,0.9-1.7c1-1.2,3.3-1.4,3.6-2.6c0.5-1.9-1.6-3.1-2.8-4
		c2.3-2.1,0.3-3.4-2.2-4c-1.3-0.3-2.8-0.5-4.3-0.9c-2.3-0.7-5.4-1-5.7-3.5c-0.3-0.3,0-1.2-0.1-1.7c0.1-0.6,0.2-1.1,0.1-1.8
		c-0.3-0.4-0.9-0.4-1.7-0.4c-0.8,0.2-2,0.9-2.6,0.5c0-0.8,0.4-1.2,0.6-1.8c0.8,0.4,1.8,0.7,2.7,1c0.2,0.1,0.3,0.3,0.6,0.3
		c0.4,0.1,0.4-0.2,0.8-0.1c0.6,1.2,1,2.6,1.9,3.4c2.8,0.4,2.9-1.9,4.3-3c1.1,0.3,1.5,1.4,1.8,2.5c1.2,0.5,2.7,0.5,4,0.9
		c0.2,0.5,0.2,1.2,0.4,1.7c3.7,1,4.8-2.8,4.9-6.2v-3.2c-0.5-0.9-1.1-1.7-1.7-2.5c1-0.6,0.6-2,0-2.7c0.5,0.1,0.6-0.4,1.2-0.3
		c1.1,0.9,0.8,2.3,0.6,4c0.9,1,1.4,3,0.5,4.4c0,0.8-0.2,1.9,0.4,2.2c1.8,0.4,1.3-2.7,2.5-2.8c1-0.1,0.8,0.9,1.2,1.8
		c-2.9-1-4.2,4.4-2.8,6.5c0.6,0.5,1.1,1,1.5,1.6c1.6,2.1,2.9,4.4,4.1,6.9c0.6,0.8,1.3,1.5,2.1,2.1c0.5,0.2,0.8,0.5,1.3,0.6
		c0,0.3,0.5,0.1,0.8,0.1c0,0.3,0.2,0.5,0.4,0.6v0.1c0.4,0.5,0.6,1.1,1.2,1.4v0.1c0.1,0.1,0.1,0.2,0.3,0.3c-0.1,0.2-0.2-0.1-0.4,0
		c-1.4-0.5-2,1-2.8,1.8c-0.7,0.7-1.3,1.7-2.2,1.8c-1.2,0.1-1.7-0.8-3.5-0.8C110.7,124.3,110.5,123.6,110.2,122.9 M89.5,125.8
		c-1.1-0.1-1.6-0.8-2.6-1c0-0.5,0.4-0.7,0.4-1.3c1.1-0.6,2.4-0.4,3.6,0c0.4,0.1,1,0,1.3,0.3h0.5C92.6,124.7,90.5,125,89.5,125.8
		 M181.2,78.4L181.2,78.4c0.1-0.1,0.2-0.1,0.3-0.2c-0.1,0-0.2,0-0.3,0c0.1,0,0.2,0,0.3,0C181.3,78.2,181.3,78.3,181.2,78.4
		 M164.1,62.9L164.1,62.9C164.1,62.9,164.1,62.9,164.1,62.9L164.1,62.9z M169.5,105.9c-0.1-0.1-0.1-0.2-0.2-0.3
		C169.4,105.7,169.5,105.8,169.5,105.9 M122.7,122.6c-0.1-0.1,0.6,0.5,0.2,0.4c0.1,0.2,0.2,0.4,0.4,0.6c-0.4-0.3-0.8-0.6-1.3-0.9
		c0.5,0.1,0.4,0,0.8,0.3c-0.6-0.6-1.4-0.8-2.6-0.8C121.3,122.1,122.1,122.1,122.7,122.6 M111.9,105.6c0.2-0.2,0.6-0.2,1-0.3
		c0.2,0.4,0.8,0.8,0.4,1.3h-0.1c-0.2,0.3-0.5,0.7-1,0.6C112.1,106.7,111.3,106.2,111.9,105.6 M101.7,83.5c1.2,1,1.8,3.2,1.6,5.2
		c-0.3,0-0.6,0-0.6,0.3c-0.2-0.7-0.2-1.4,0-1.9C102.2,85.9,101.1,84.9,101.7,83.5 M107,89.1c0,0.2-0.2,0.3-0.1,0.5
		c-0.6,0.1-0.8-0.3-1.2-0.4c0.2-0.9,0.6-1.7,1.3-2.1C107.5,87.3,107.3,88.8,107,89.1 M159.1,24.3c-1.1,0.7-1.6,2-2.8,2.6
		c-0.1-0.3-0.3-0.4-0.4-0.6c1-0.9,1.7-2.2,1.8-4c-0.5-0.6-1.3-0.9-1-2.3c0.7-0.6,1.8-0.8,2.6-1.3C161.2,19.9,158.1,21.9,159.1,24.3
		 M182.7,104.5c0-0.2,0-0.3,0.1-0.5c0.2,0.2,0.3,0.3,0.6,0.4c0-0.6,0.5-1.3,0.1-2.2c-0.2,0-0.3,0-0.5,0c0.2-1.3,0.3-2.1,0.3-2.1
		l-8.1,0.7c0,0-0.2,0.5-0.5,1.1c-1.2,1.1-2.6,2-4,2.9c-0.4,0.2,0.5,0.6,0,0.9c-1.7,0.3-2-1.8-1.8-3.7c-0.2-0.1-0.4-0.2-0.7-0.3
		c0-0.1-0.1-0.2-0.1-0.2c-0.2,0-0.4,0-0.7,0.1c-0.8-0.1-1.7,0-2.4,0.3c-1.4,0.1-2.1,0.3-3.4,0.4c-0.1,1.1,2.4,2.2,1.9,2.9h-0.1
		c0,0.5,0,0.8-0.1,1.2l-0.1,0.8c0,0,0.1,0,0.1,0c-0.3,0.2-1.1,0.7-1.2,1.6c-0.5,2.6-1.5,3.7-2.9,4.6c0.2-0.2,0.3-0.4,0.5-0.7
		c-0.3,0.2-0.5,0.5-0.7,0.8c-0.4-0.4-0.7-0.6-1-0.5c0.1,0.5,0,0.9-0.2,1.2c0,0,0,0,0,0c0,0,0,0,0,0c-0.3,0.5-0.7,0.9-1.1,1.1
		c-0.1,0-0.2,0-0.3,0c-0.5,0.2-1.4,0.6-2.1,0.6c1.5,0-0.7,0.7-2.4,0.7c-0.3,0.3-0.7,0.2-1.2,0.3c-0.9,0.3-1,0.9-1,0.9l-1.8-0.2
		l-1.5-0.2c0-1-0.9-0.7-1.3-2.3c-0.4-1.8-1.4-2.3-2.5-3.2c-0.4-0.4-0.4-1-0.8-1c-0.4,0-0.8,0.9-1.2,1.5c0,0,0,0,0,0
		c-0.1,0.1-0.2,0.2-0.3,0.3c0,0-0.1,0.1-0.1,0.1c0,0,0.1-0.1,0.1-0.1c-0.1,0.1-0.4-0.1-0.5,0c-0.4,0.2-0.3,0.7-0.8,0.6
		c-0.4-0.8,0.5-1.2,0.4-2.2v-0.6c-0.3-2.9-1.8-4.1-2.4-7.2c-0.8-4-0.1-7.9,0.4-10.8c-0.2-0.2-0.5-0.4-0.5-0.8c0,0,0,0,0-0.1v0l0,0h0
		c0,0,0,0,0-0.1c0,0,0-0.1,0-0.1c0-0.1,0.1-0.2,0.1-0.4c-0.1-0.8-0.7-1.2-1-1.8v-0.1c0-0.6-0.4-0.9-0.4-1.6c1-0.2,0.9,0.8,1.7,0.8
		h0.3c0.9,0.1,1.1-1.1,1.7-1.9c2-3,3.2-5.6,6.8-6.6c0.6,0,0.5-0.7,1-0.8c1.4-0.1,1.8,0.7,2.8,0.9c0.6,0,0.9,0.2,1.3,0.4
		c0.4,0.4,1,0.7,1.7,0.9c0-0.2-0.2-0.1-0.3-0.3h-0.1c-0.1-0.3-0.4-0.3-0.7-0.4c0,0,0,0,0,0c0.7,0.1,1.3,0.3,1.8,0.6
		c1.1,0.7,1.9,1.5,2.5,2.4c0.2,0.3,0.4,0.7,0.6,1.1c0.7,1.4,1,3,1.3,4.7c3.2-0.3,9.5-0.9,9.5-0.9c0.6,0.1,1.9-6.3,2.3-6
		c0.6-0.3,1.3-0.5,2.1-0.7c-0.9,0.8-1.7,1.7-1.1,2.1c1.2,0.8,2.5-0.7,2.9,0.1c0,2.1,3.8,1.9,1.5,2.7c-2.3,0.8,1.7,0.8,1.7,0.8
		l5.4-0.7c-0.1-1.6-0.9-4.1-1.6-6.1c0.4-0.1,0.7-0.1,1-0.2c-0.1-0.3-0.2-0.8-0.3-1.3c0.5-0.1,0.9-0.2,0.5,0.3c0.5,0.2,0-0.6,0.4-0.5
		c2.2-0.7,5.1-1.1,5.2-3.5c0-1.4-1-1.6-1.4-2.8c-0.4-0.5-0.9-0.9-1.3-1.4c-1.8-2.4-2.4-5.5-3.7-8.1c-0.4-0.9-1.2-1.6-1.6-2.5
		c-0.6-1.4-1-3.1-1.6-4.7c-1.1-3.4-1.9-6.6-2.8-10.2c-0.8-3.4-2.1-6.6-1.9-10.1c0.3-1.8,0.5-4.5,0-6.2V27c0-0.8,0.1-1.8-0.3-2.3
		c-0.4-1.3-0.5-2.7-0.8-4.1c-0.2-0.9-0.8-1.5-1-2.3c-0.1-0.4,0.1-0.9,0-1.3c-0.1-0.4-0.6-0.9-0.8-1.4c-0.4-1.1-0.8-2.7-2.1-2.5
		c-1.5,0.2-0.8,2.1-0.9,3.4c-0.1,1.4-1.2,1.7-1.6,2.6c-0.3,0.4-0.4,1.2,0,1.6c0,0.4,0.4,0.5,0.3,1c-1,0.2-2.8,0.1-3.1-0.9
		c0.7-0.6,1.2-0.7,1.3-1.6c0.1-0.8-0.8-1.5-0.8-2.2c0.1-1.4,1.9-1.3,2.1-2.7c0.5,0.1,0.7-0.1,0.9-0.3c0.5-0.3,0.2-1.2,0-1.6
		c-0.7-2-2.2-3.5-4.3-3.5c-3-0.1-4.1,2.7-6.5,3.1c-1.9,0.8-1.6,3.8-2.7,5.4c-0.2,0.1-0.2,1.2,0,1.3c0.3,0.3,0.3,0.8,0.3,1.4
		c-0.2,0.4-0.3,1.8,0.1,1.9c0.2,0.5,0.6,0.8,0.6,1.4c-1,1.1-1.3,3.2-0.5,4.8c1.5,0.4,1.6,2.1,2.5,3c1,1,2.4,1.2,3.6,2.2
		c0.4,2-3.4,3.1-1.3,5.2c1.3-0.1,2.7-0.1,3.5,0.6c-0.2,1.1-1.2,2.9,0.3,3.9c0.7,0.1,0.9-0.2,1.6-0.1c0.3,0.3,0.8,0.4,1.2,0.6
		c0.2,1.5,1.2,2.5,2.2,3.4c1,0.9,2.1,2.4,2.8,3.1c0.6,0.6,1.1,0.5,1.2,1.2c0.1,2.3-2.4,0.1-2.7-0.5c-1.5-0.2-2.3,0-3.4-0.8
		c-0.2-0.2-1.3-0.3-1.3,0.1c-0.8,1.7-1.7,4.4-1.4,6.2c1.6,0.6,2.1-0.8,3.2-1c-1.6,1.5,0.5,5.1-1.3,6.7h0.1c0,0.6-0.5,0-0.6,0
		c-2.7-1.1-5.3-2.3-8.7-2.7h-0.6c0-0.3-0.5-0.1-0.8-0.1c-0.4-0.2-1.8-0.2-2.2,0c-0.3,0.1-0.8-0.2-0.9,0.1H150
		c-0.6-0.1-0.8,0.2-1.4,0.1c-2.7,0.1-2.9,3.4-5.8,2.8c-0.8,0.8-1.8,1.5-2.7,2.2c0,3.9-3.5,0.6-2.7-1.9c-0.6-0.2-1.6-0.8-2.2-0.3
		c-0.8,0.4-1.8,0.6-2.5,1c-2.4,0.7-4.2,2-6.1,3.2c-0.6,0.5-1.4,0.8-1.8,1.4c-0.6,0.2-0.9,0.7-1.4,1h-0.1c-0.2,0.1-0.3,0.3-0.5,0.4
		L122,69c0,0-0.1-0.1-0.1-0.1c-0.4-1.1-0.8-2.3-1-3.5c-0.8-0.4-0.2-2-0.4-3c0-0.2-0.1-0.3-0.1-0.5c-0.3-0.3-0.3-0.9-0.3-1.4
		c0-0.4-0.3-0.4-0.3-0.8c-0.3-0.3-0.8-0.4-1-0.8c-2.8-3.6-9.7-3.1-12.3-6.9c0.4,0,0.5-0.4,0.6-0.6c0.3-0.3,0-0.9,0-1.3
		c-2.4-2.9-3.4-7.2-5-10.9c-0.5,0-0.8-0.2-1.2-0.4c-0.6-1.3-1.2-2.6-2.1-3.6c-0.3-0.6-0.8-1-1.3-1.4c-1.4-0.5-1.8-2.1-3.4-2.1
		c-1.6,0-2.8,2.1-4,3c-0.9,0.7-2.2,2.1-3,1c0.8-1.3,4-2.5,4-4.3c0-0.8-0.7-1-0.9-1.9c1.5-1.8-0.8-2.6-1.9-3.6
		c-1.8-1.5-3.2-2.9-4-4.9c-0.7-0.8-1.4-1.5-2.2-2.2c-0.2,0-0.2-0.2-0.4-0.3c-0.7-0.8-1.5-1.5-2.3-2.2c-0.4-0.1-0.7-0.3-1-0.4
		c-0.7-0.2-2-0.5-2.6,0c-1.6-0.1-3.1,1.2-4.1,0.9v-0.6c0.6-0.5,1.2-1.1,1.7-1.7c0.6-0.9,1.3-1.5,1.8-2.5c0.4-0.3,0.4-1.5,0-1.8
		c-3.1-5.2-7.8-8.8-14.9-10.1c-0.2-0.3-1,0-1.4-0.1c-2.2-0.6-3.9,1-4.7,2.7c-0.1,0.5-0.3,0.9-0.3,1.7c1,1.7,0.7,4.1,1.3,6.3
		c2.1,0.8,1.6,3.2,2.6,4.7c0.7,1,2.1,1.2,3.4,2.2c1.4,1.2,1.9,3,3.9,3.1c0.4,0.2,1.6,0.2,1.9,0c0.3,0.1,0.6-0.5,0.6-0.1
		c-0.5,2.4,0.6,4.3,1.9,5.3c0.5,0.6,1.1,1.2,1.7,1.7c1.9,2.6,3.8,5.2,6.5,7.1c0.5,0.3,0.8,0.8,1.3,1.2c0.3,0.3,0.4,0.8,0.9,0.8
		c0.1,0.3,0.8,0,1.2,0.1c0,0.2,0.1,0.3,0.3,0.4c1,0.6,1.4,2,0.9,3.4c-0.2,0.1-0.2,1.2,0,1.3c1.2,2,2.7,3.6,3.7,5.8
		c0.4,0.2,1,0.1,1.6,0.1c0,0.2-0.1,0.3-0.1,0.4v1.3c1.5,2.4,3.2,5.7,7.4,4.3c0.2,0.3,0.9,0.3,1.4,0.3c0.6-0.1,1-0.4,1.6-0.5
		c0.8,0.3,1.4,0.8,2.2,1h1.4c0.7-0.2,1.1-0.7,2.1-0.6c-0.1,0.6-0.3,1.2-0.4,1.8c-1.1,1-2.5,2.2-3.9,3.1c-1.4,0.9-1,3.9-1.8,5.3
		c-0.4,0.7-1.5,1.3-1.8,2.1c0,0.4-0.3,1.1,0,1.4c0.2,0.2,0.3,1.3-0.1,1.3c-0.4,1.1-0.1,2-0.5,2.8c-0.5,1.2-2.7,1.6-3.7,3
		c-0.6,0.8-0.4,1.5-1.3,1.7c-0.6,0.7-1.2,1.3-1.9,1.9c-0.2,0-0.2,0.2-0.4,0.3c-0.4,0.5-0.8,0.9-1.3,1.3c-1.2,1.1-2,2.5-2.7,4.1v1.6
		c0.1,0.2,0.1,0.5,0.1,0.8c-0.4,0.9-1.4,1.1-1.6,2.2v1.3c0.4,2.1,0.6,4.4,2.2,5.3c-1,1.2-2.8,1.5-4,2.6c-0.1,0.9,0.4,1.2,0.5,1.8
		c-0.5,0.8-1.6,1-2.1,1.8c-0.4,3.7,2,4.6,1.9,8c0.2,0.3,0.2,1.5,0,1.8v0.9v2.3c0.6,0.8,1,1.7,0.5,3c0.2,0.5,0.5,0.8,0.9,1
		c-0.2,0.2-0.3,0.4-0.5,0.6c-0.5,0.6-1,1.1-1.5,1.6c-0.5,0.7-1.3,1.2-1.4,2.3v1.7c0.8,1.8,0.5,4.3,0,6.2v1.7
		c0.7,1.3,1.9,2.1,3.6,2.3c0.5-0.5,1.1-0.9,2.1-0.9c0.3,0.2,0,0.9,0.1,1.3c0.5,2.3,2.9,2.6,4.7,3.5c-0.1,0.2-0.3,0.3-0.3,0.6v1.4
		c0.7,0.5,1.5,1,2.5,1.3h1.3h0.3c-0.2,0.4-0.4,0.8-0.1,1.3h0.1c0.2,0.5,1.5,0,1.9,0.4c2.1,0.4,1.8-1.6,1.6-2.6
		c1.1,0.5,1.1,1.7,1.7,2.6c1,1.4,2.6,2,4.7,2.5c0.2,0.2,0.3,0.5,0.8,0.5c0.7,0,0.9-0.6,1.4-0.8c0.7,1,2.4,1,2.3,2.7
		c0.9,0.6,2.1,0.8,3.5,0.8c0.5,0.5,1.1,0.9,1.7,1.3c0.3,0.8,0.9,1.6,1.5,2.1c0,0,0,0,0,0.1c0,1.8,1.3,3.9,2.8,2.8
		c0.2-1.1-0.5-1.3-0.6-2.2c1.4,0.9,2.8,1.9,4.5,2.8c1.4,0.8,2.9,2.7,4.4,3c0.5,0.1,1-0.3,1.4-0.3c0.4,0.1,0.9,0.9,1.4,1
		c0.5,0.1,1-0.1,1.3,0c0.9,0.3,1.4,1.7,2.5,1.8c0.6,0.1,1.2-0.5,1.8-0.4c0.5,0.1,0.9,0.7,1.4,0.8c1,0.2,1.5-0.2,2.6-0.3h1.3
		c1.2,0.8,3.3-0.5,3.9,0.5c0.2,0.2,1.2,0.2,1.4,0c0.5-0.3,1-0.6,1.8-0.6c0.3,0.2,1.5,0.2,1.8,0c0.3-0.1,0.8-0.3,1,0
		c0.4,0.3,1.3,0.1,1.6-0.1c1.8-0.9,4.1-1.2,5.8-2.5c1.2-0.9,2.1-2.9,3.4-3.7c0.6-0.4,1.2-0.4,1.6-0.9c0.5-0.7,0.3-1.9,1-2.6
		c0.5-0.4,0.9-0.8,1.3-1.3c1.2-1.3,3.4-1.7,3.5-4.1c-0.1-0.6,0.2-1.6-0.1-2.1c-0.1-0.2-0.1-0.5-0.1-0.8c0-1.4,0.1-2.8-0.3-3.9
		c0.1-1.4-0.7-2.3-0.5-3.6c0.1-1.2,1.4-2.4,0.4-3.5v-0.1c0,0,0,0,0-0.1l0-0.3c0.6-0.1,1.1-0.3,1.5-0.6h0.1c3.2-1.2,6-3,7.1-6.3
		c-1.2-0.1-1.4,0.7-2.3,0.8c-0.3-0.6,0.9-1,0.3-1.2c-1.3,0-2.7,1.4-3.9,0.4c0-0.6-0.1-1.3,0.4-1.4c0.7,0.1,1-0.1,1.4-0.3
		c0.4-0.3,0.3-1,0.6-1.3c0.6,0.7,1.4,1.1,2.6,0.6c0.2,0-0.3-0.8,0.3-0.8c0.7,0.3,1.2,0.4,2.2,0.3c0.5-0.4,0.9-1,1.8-1
		c0.9-1.1-1-1.5,0.2-2.8c0.6-0.7,2.8-2.9,3-3.6c0.3-1.2-0.4-2.2,0-3.4c0.4-0.9,1.4-1,1.8-2.1C183.1,107.6,183.3,105.9,182.7,104.5"
		/>
	<path class="st3" d="M66.3,118.1c-0.6-0.3-1-0.8-1.8-0.9c-0.3-0.2-1.5-0.2-1.8,0c-0.8-0.3-1.2-1-2.1-1.3c-0.4-0.2-1.8-0.2-2.2,0
		c-0.8,0.1-1.5,0.6-2.3,0.6c-1,0-1.3-0.3-2.1-0.5c-1.3-0.4-2.9-0.3-4.1-0.6c-1.5-0.5-2.9-1.5-4.3-1.6c-0.3-0.3-1.2,0-1.8-0.1
		c-2,0.4-3.7-1.6-4.9-1.5c-1.4,0.1-1.9,1.7-3.1,2.5c-1.4-1.5-1.4-3.6-3.1-4.8c-0.7-0.5-2-0.7-3.2-1.2c-1.1-0.4-2-1.1-3-1.6
		c-2.7-1.2-6.7-0.2-10.6-0.5c-3.6,0.8-5.9,2.2-5.9,6.2c-0.1,3.5,1.2,5.2,3.5,7.2c1.4,1.3,3.1,3,4.5,3.9c1.9,1.2,5.3,1.2,7.1,2.1
		c0.4,0.2,1.7,0.2,2.1,0c1.5-0.7,2.6-1.5,4.5-0.6c0.6,0.2,2,0.2,2.6,0c0.4-0.2,1-0.3,1.4-0.5c0.9,0.6,1.6,1.3,2.8,1.6
		c0.5,0.4,1.7-0.1,2.2,0.3c0.5,0,1,0,1.4,0l1.4,0.3c2,0.6,3.4,1.7,5.7,1.9c0.6,0.2,2.1,0.2,2.7,0c1.4-0.6,2.5-1.5,4-1.9
		c0.1-0.8,0.4-1.2,1-1.4c1,0.2,1.1,1.5,1.9,1.9c0.7,0.4,1.7,0.1,2.5,0.6c0.9-0.8,1.9-1.3,3-1.9h2.1c0.2,0.3,0.8,0.1,0.8,0.6
		c0.4,0.5,2.1,0.3,2.7,0.1c2.5-0.1,2.5-2.7,1.2-4C68.9,121.9,66.9,120.7,66.3,118.1"/>
	<path class="st3" d="M13.9,82.1c2.1,1.7,6,1.5,8.5,2.7H24c0.3,0,0.5-0.2,0.9-0.1c1.5,3,5.9,3.2,9,4.5c0.6,0.1,1.6-0.2,2.1,0.1
		c1.8,0.7,3.2,1.8,5.6,1.9c0.5,0.1,1.3-0.2,1.4,0.3c1.4,0,1.6,1.2,2.8,1.4c0.4-0.3,1.3-0.9,1.4-1.9c0.1-0.8-0.5-1.8-0.6-2.8
		c-0.1-1,0.3-2.1-0.1-2.6c-0.6-0.7-1.9-0.3-2.6-0.1c-0.1-1-0.7-1.8-1.2-2.5c-0.5-0.6-0.9-1.6-1.6-2.1c-1-0.8-3-0.6-3.6-1.6
		c-0.6-0.4-1-1-1.4-1.6c-1.1-1-2-2.5-3.7-2.5c-3.4,0.1-3.6,5.3-6.7,5.9V81c0.1-0.5-0.2-1.3,0.1-1.6c0.3-2,1.7-2.9,2.1-4.8
		c0.2-0.2,0.2-1.1,0-1.3c-1-2.4-3.8-3-5.9-4.3c-2.3-1.6-5.7-4.7-9.3-6.1C9.1,61.7,2.9,62.9,1,65c-2.3,2.6-0.1,7.2,0.9,9.3
		c0.4,0.8,0.6,1.7,1,2.5c1.1,2,4.2,3.9,5.9,4.9C10.1,82.3,12.6,81.6,13.9,82.1"/>
	<path class="st3" d="M62.3,88.7c-0.4-1-0.9-2-2.2-2.1c-0.5-0.4-1.9,0.1-2.5-0.3c-0.8-0.1-1.5-0.8-2.5-0.4c-0.8,0.7-0.7,1.6-1.3,2.7
		c-0.8,1.5-2.6,2.3-2.7,3.9c0,0.7,0.6,1.5,0.6,2.2c0,0.6-0.5,1-0.4,1.4c0.3,1.5,2.3,1.8,4.3,2.1c1,0.2,3,0.2,4,0
		c0.9-0.1,1.1-1,1.9-1.2c1.1,0.6,2,1.5,3.4,1.9c0.1,0.4,0.9,0.2,1.3,0.4c0.4-0.1,1.1,0.2,1.3-0.1c0.6-0.1,1.1-0.4,1.4-0.8
		c0.2-0.2,0.2-1.1,0-1.3c-0.3-0.2,0-0.9-0.1-1.3c-0.7-1.5-1.3-3.6-2.8-3.7c-1.5-0.1-1.6,1.5-3.4,1.5c-0.4-0.3-0.5-1.2-0.4-1.7
		C62.5,91.2,62.5,89.5,62.3,88.7"/>
	<path class="st3" d="M81.1,73.5c0.5-0.7,1.2-1.1,1.4-1.6c1.3-3-3.2-4.6-3.9-6.6c-0.5-0.4-0.8-0.9-1.2-1.4c-0.9-1.5-3.1-1.4-4.9-2.1
		c-1.6-0.6-2.7-2.1-4.3-2.2c-0.7-0.2-2.3-0.2-3,0c-0.6,0.2-1,0.7-1.7,0.9c-0.6,0.3-0.9-0.1-1.2-0.5c-0.7-3.3-3.8-4.2-6.1-5.9
		c-0.8-0.5-1.9,0.1-2.5-0.5c-2.1-0.8-2.3-3.5-5.4-3.2c-1.2-0.7-1.6-2.1-3-2.2c-1.5-0.2-2.8,1.4-4.4,1.6c-0.5,3.3-4.6,3.5-3.7,7.8
		c-0.3,0.1-0.4,0.4-0.8,0.4c-0.2,0.3-0.5,0.6-0.4,1.3c0.7,1.4,3.2,1.1,4.7,1.8c0.7,1,1.5,1.8,2.6,2.5c4.2-0.4,3.2,4.5,7.2,4.3
		c1-0.5,2.5,0.3,3.4-0.1c2.5-0.3,2.9-2.7,3.6-4.8c1.2-0.5,2-1.4,3-2.1c-0.1,1-0.5,2.5-1.4,3.7c-0.7,0.9-1.8,1.3-1.6,2.3
		c0.1,0.4,0.8,0.8,1.2,0.6c0.7-0.3,1-0.8,1.4-1.3c0.7-1,1.7-1.5,2.7-2.2c0.9,1.4-0.8,2-1.7,2.8c-1,1.1-1.7,2.7-1.7,4.7
		c0.1,0.6,0.3,1.1,0.8,1.4c1,1.3,2.4,1.7,4.8,2.3c1.4,0.4,2.7,2,4,2.3c0.5,0.1,1.1,0,1.6,0.1c1.1,0.4,1.8,1.7,2.8,1.7h1.8
		c1.7-0.3,2.5-1.4,3-2.8C79.8,76,80.3,74.7,81.1,73.5"/>
	<path class="st3" d="M11.9,44.9c1.3,2.5,2.4,3.5,4.7,5.3c2.7,2.1,5.7,4.3,9.7,4.7c0.5,0.4,1.8-0.2,2.1,0.4c0.9,1.8,5.2,2.8,6.7,0.9
		c0.1-1.6,0.3-3,1.4-3.6c0.7-0.4-0.2-1.7,0.4-1.9c0.7-0.7,1.5-1.1,1.6-2.3c0-0.9-0.7-1.6-1.2-2.6c-0.8-1.6-1.4-2.9-2.6-4.4
		c-0.8-1.1-1.6-2.3-2.3-3.1c-2.2-2.1-7.3-3.2-10-4.4c-1.2-0.2-3.6-0.3-4.7,0.1c-2.5,0.4-4.1,1.6-5,3.6c-0.3,0.4-0.7,0.8-1,1.2
		c-0.4,1.4-0.8,3.2-0.6,4.5C11,43.7,11.5,44.2,11.9,44.9"/>
	<path class="st0" d="M71.1,10c-1-1.3-2.5-1.3-3.9-2.2c-1-0.6-2-1.6-3-2.3c-0.9-0.7-2.1-2-2.8-2.5c-2-1.1-4.4-0.4-5,1.2
		c-1.3,3,1.4,5.6,2.8,7c2,1.9,4.9,4,7.4,3.9C69.1,14.9,71.5,13,71.1,10"/>
	<path class="st0" d="M84.6,26.6c-0.8-1.1-0.8-2.2-1.4-2.8c-1.3-1.3-4-1.1-5.8-2.1c-1.5-0.8-1.6-2.4-3.2-2.2
		c-0.8,0.1-1.7,0.6-2.1,1.2c-1.4,2.1,0.1,4,1.2,5.4c1.4,1.9,3.4,4.3,5,5.7c0.4,0.3,1,0.7,1.2,0.8c1.4,0.5,5.5-0.5,7-1.4
		c0.6-0.3,1.7-1.5,1.5-2.2C87.8,27.8,85.6,27.9,84.6,26.6"/>
	<path class="st0" d="M96.9,39.8c-1-2-1.2-4.7-4-4.4c-1.6,0.2-4,4.5-4.3,6.1c-0.2,1.5,0.2,4,0.9,4.8c1.2,1.3,3.8,1.4,5.3,2.7
		c0.8,0.7,0.7,1.5,1.7,2.3c2.6-0.2,3.8-2.8,4-4.8C101,42.5,97.8,41.6,96.9,39.8"/>
	<path class="st0" d="M17.3,47.6c0.6,0.4,3.2,1.7,3.7,1.8c2,0.4,3.7-0.2,5.4,0.4c1.5,0.5,2.1,2.9,4,2.7c1.7-0.1,3.5-3.1,3.4-5.6
		c-0.2-2.6-1.2-3.1-3-4.1c-0.9-0.5-1.5-1.1-2.1-1.4c-2.4-1.2-7.5-2.8-10-2.5c-0.9,0.1-2,0.5-2.7,1.2c-0.6,0.5-1.6,2-1.6,3.2
		C14.7,44.4,16.2,46.8,17.3,47.6"/>
	<path class="st0" d="M87.1,43.4c0.8-0.5,0.8-2.7,0.4-3.6C85.3,38.8,84.6,43.8,87.1,43.4"/>
	<path class="st0" d="M44.7,61.5c1.4,0.5,2.3,0.5,3.7,1c2.4,3.1,4.4-3.6,5.3-4.9v-0.1c-0.9-0.8-1.3-2.4-2.5-3.1
		c-1.4-0.8-3-0.2-5-0.9c-0.6-0.2-0.9-0.9-1.7-0.9c-1.3,0-2.2,1.3-3,2.2c-0.7,0.7-2.1,2-2.1,3C39.6,58.8,43,60.9,44.7,61.5"/>
	<path class="st0" d="M56.9,58.4c-2,1.1-4.1,2.5-4.7,5C55,65.4,59,60.3,56.9,58.4"/>
	<path class="st0" d="M68.9,65.8c-0.3-0.1-0.5-0.2-0.4-0.6C69,65,69.1,65.5,68.9,65.8 M75.1,69c0.3-0.5,1.1-0.5,1.2-1.3
		c-0.5-0.5-0.5-2-1-2.5c-1.8-1.5-5.5-3.6-7.8-2.2h-0.9c-2.2,1.3-1.9,7-0.8,9.3c1.9-0.4,2.2,1.4,4,0.8c-0.1,0.5,0.1,0.9,0.3,1.2
		c0.8,0.7,1.3,0.1,2.2,0.4c0.8,0.3,1.3,1.4,2.3,1.4c0.5,0,1.5-0.6,1.8-1.3c0.1-0.3,0-0.7,0.1-1c0.3-0.8,1.2-1.6,1.2-2.5
		c0-0.8-0.8-1.5-1.2-2.1C76,69.2,75.4,69.2,75.1,69"/>
	<path class="st0" d="M8,67.9c-0.1-0.5,0.8-0.8,0.8-0.1C8.6,67.9,8.3,67.9,8,67.9 M14.7,78.6c2.2,0.2,3.9,1.5,5,1.3
		c1.7-0.2,3.8-3.3,3.6-5.2c-0.2-2.5-3.2-3.1-5.3-4c-1.2-0.5-2.3-1.6-3.5-2.2c-0.7-0.4-1.6-0.5-2.2-0.9c-1.5-0.9-3.7-2-5.4-1.9
		c-5.1,0.2-4,6.6-1.8,8.9c0.6,0.7,2,1.3,3.1,2.1c0.9,0.6,2.2,1.6,3.4,1.8C12.5,78.7,13.5,78.5,14.7,78.6"/>
	<path class="st0" d="M35.4,80.1c-0.6-0.3-1.5-0.4-2.2-0.3c-1.5,0.2-5.5,1.6-5.3,3.2c0.1,1.3,4.9,1.8,6.2,1.7
		c1.2-0.2,3.1-1.5,3.1-2.3C37.2,81.7,36,80.4,35.4,80.1"/>
	<path class="st0" d="M38.4,87.2c1.4-0.3,2.1-0.6,3.6-0.1c1.7-1-1.8-4.1-2.6-4.1c-1.2,0-1.3,1-2.1,1.9
		C37.6,85.7,37.6,86.9,38.4,87.2"/>
	<path class="st0" d="M66.5,97.1c0.6-2.2-2.6-2.4-2.5-0.6C64.2,97.3,65.7,97.9,66.5,97.1"/>
	<path class="st0" d="M30.1,119.8c-0.3-0.3,0-0.4,0.1-0.6C30.6,119.2,30.6,119.9,30.1,119.8 M21.3,120.3c0.1-0.1,0.1-0.2,0.1-0.4
		c0.3-0.1,0.3,0.1,0.5,0.1C21.9,120.3,21.6,120.6,21.3,120.3 M30.2,112.3c-0.8-0.2-1.6,0-2.3-0.3c-1.3-0.5-2.1-1.5-3.5-1.8
		c-1.6-0.4-3.7,0.2-4.9,0.1c-0.7,0-1.5-0.5-2.3-0.4c-2.8,0.3-5.6,2-3.9,4.8c3.3,1.4,4.4,6.9,8.4,7.2c1.6,0.1,2.6-1,4.1-0.1
		c1.6-1.2,3.1,0.1,4.8-0.3c2.2-0.4,2.1-2.5,2.8-4.5c0.3-0.7,1-1.4,0.9-2.1C34.3,113.8,32.2,112.8,30.2,112.3"/>
	<path class="st0" d="M43.5,118.9c-0.6-0.6-0.5-1.5-0.9-2.1c-0.4-0.6-1.4-1.4-2.1-1.6c-1.9-0.4-1.4,1.4-1.7,3
		c-0.3,1.6-1.2,2.8-1.5,4.1c0.8,0.7,3.1,1.7,4.3,1.6c0.8-0.1,1.3-1.1,2.1-1.2c0.8-0.1,2.1,0.5,2.8,0.8c0.8,0.3,1.5,1,2.6,1.2
		c2-1.2,3.2-3.7,3-6.8C49,115.8,46.1,121.6,43.5,118.9"/>
	<path class="st0" d="M62,121.5c0.2,1.6,2.9,2.2,4.3,2.7c1.5-1.4-0.9-2.9-1.4-4.3C63.2,119.3,61.9,120.2,62,121.5"/>
	<path class="st0" d="M61.3,123.4l0,0.5C61.3,123.7,61.3,123.6,61.3,123.4"/>
	<path class="st0" d="M185.8,98.7l-11.1,1.3l-0.2,0.4c0,0-0.2,0.4-0.5,0.9c-0.3,0.5-0.6,1.1-0.9,1.2c-0.9,0.7-1.7,1-2.7,1.7
		l-0.4,0.3l0.2,0.5c0,0,0,0.1,0,0.1c-0.1,0-0.2,0-0.4-0.1c-0.2-0.3-0.4-1-0.5-1.6c-0.2-0.8-0.3-1.7-0.8-2.5l-0.2-0.4l-0.4,0.1
		c-1.2,0.1-3.9,0.5-6.5,0.7l-0.6,0l-0.1,0.6c0,0.1,0,0.1,0,0.2c0.1,1,0.8,1.4,1.2,1.9c0.2,0.2,0.4,0.3,0.5,0.5l0,0.4
		c0,0.1,0,0.2,0,0.2c0,0.3,0,0.5-0.1,0.7l0,0.1l-0.1,0.8c0,0,0,0.1,0,0.1c-0.1,0.2-0.1,0.4-0.1,0.6c0,0.1-0.9,0.3-0.9,0.5
		c0,0.1,0,0.3,0,0.5c-0.4,2-1,2.9-1.9,3.7l-0.2-0.2c-0.1,0.1-0.3,0.2-0.4,0.4c-0.2-0.1-0.4-0.2-0.7-0.2c-0.1,0-0.3,0-0.5,0.1
		l-0.5,0.2l0.1,0.5c0,0.1,0,0.2,0,0.2c0,0.1,0,0.3-0.1,0.4l-0.6,0.3l0.2,0.2c-0.1,0.1-0.3,0.3-0.4,0.4c0,0-0.1,0-0.1,0l-0.1,0
		l-0.1,0.1c-0.4,0.2-1.3,0.5-1.8,0.5c0,0,0,0,0,0v0h0l0,0.3c-0.4,0.1-1.5,0.4-2.4,0.4h-0.3l-0.2,0.2c-0.1,0-0.4,0-0.8,0.1l0,0l0,0
		c-0.6,0.2-1,0.5-1.2,0.8l-1.3-0.1l-1-0.1c0-0.1-0.1-0.2-0.2-0.3c-0.6-0.7-0.8-0.5-1.1-1.5c-0.5-2-1.8-2.8-2.7-3.6
		c-0.1-0.1-0.2-0.2-0.3-0.4c-0.1-0.1-0.1-0.2-0.2-0.4c-0.1-0.2-0.4-0.4-0.7-0.4v0c0,0,0,0,0,0c-0.4,0-0.6,0.2-0.8,0.3
		c-0.4,0.4-0.7,1-1,1.4c0,0,0,0,0,0c0.1-0.2,0.1-0.4,0.1-0.6c0-0.1,0-0.2,0-0.3v-0.6v0l0,0c-0.2-1.5-0.7-2.7-1.2-3.7
		c-0.5-1.1-1-2-1.2-3.5c-0.5-2.7,0.2-5.2,0.2-7.5c0-1.1,0.1-2.2,0.2-3.1l0-0.3l-0.2-0.2c-0.2-0.2-0.3-0.3-0.4-0.4c0,0,0,0,0,0l0-0.3
		l0,0c0-0.1,0-0.2,0-0.3l0-0.2l-0.1-0.2c-0.4-0.8-0.8-1.2-1-1.6v0v-0.3c0.1,0,0.1,0.1,0.1,0.1l0.2,0.2h0.3h0.2c0,0,0.1,0,0.1,0
		c0.8,0,1.3-0.6,1.5-1c0.3-0.5,0.4-0.9,0.7-1.3c2-3,3-5.3,6.3-6.3c0.3,0,0.5-0.1,0.7-0.3c0.2-0.2,0.3-0.4,0.4-0.5c0.1,0,0.1,0,0.1,0
		c0.4,0,0.7,0.1,1,0.3c0.3,0.2,0.8,0.5,1.4,0.6l0.1,0l0.1,0c0,0,0,0,0.1,0c0.3,0,0.4,0.1,0.9,0.3l0,0l0,0c0.3,0.1,0.6,0.4,1.3,0.6
		l1.3,0.5l-0.1-0.3c0.9,0.6,1.6,1.3,2.1,2c0.1,0.2,0.3,0.7,0.6,1.1c0.6,1.3,0.9,2.8,1.2,4.4l0.1,0.7l0.7-0.1
		c3.2-0.3,9.5-0.9,9.5-0.9v0c0.3,0,0.5-0.2,0.6-0.3c0.3-0.4,0.5-0.8,0.7-1.5c0.3-0.9,0.6-2.1,0.9-3.1c0.1-0.2,0.1-0.4,0.2-0.6
		c0.1,0.3,0.3,0.5,0.5,0.6c0.4,0.3,0.8,0.4,1.2,0.3c0.5,0,0.8-0.1,1.1-0.2c0.1,0,0.2-0.1,0.3-0.1c0.2,0.9,0.9,1.4,1.4,1.7
		c-0.1,0-0.1,0.1-0.2,0.1c-0.1,0.1-0.2,0.1-0.3,0.2c-0.1,0.1-0.2,0.3-0.2,0.6c0,0.5,0.3,0.7,0.5,0.7c0.3,0.1,0.5,0.2,0.7,0.2
		c0.7,0.1,1.7,0.1,1.9,0.1l0.1,0l6.1-0.8l-0.1-0.7c-0.1-1.6-0.8-3.6-1.4-5.5c0.1,0,0.2,0,0.3-0.1l0.6-0.2l-0.1-0.6
		c-0.1-0.3-0.2-0.8-0.3-1.4l1.9-1.1l-2.1-0.1c-0.4-2.1-1-4.6-1.2-5.5l0-0.1l-0.1-0.1c-0.2-0.3-0.6-0.4-0.7-0.4
		c-0.4,0-0.5,0.1-0.8,0.3c-0.5,0.3-1.2,0.7-1.8,1.1c-0.3-0.4-0.6-0.9-1-1.4c-1.6-2.3-3.4-3.8-5.8-5.7l-0.1,0l-5.7-3.1c0,0,0,0,0,0
		c0-0.4-0.3-0.6-0.5-0.7v-0.1l-0.4-0.2c-2.6-1.1-5.4-2.3-8.9-2.8l0,0h0h-0.3c0,0,0,0,0,0c-0.2-0.1-0.4-0.1-0.5-0.1
		c-0.2,0-0.3,0-0.4,0l0,0h-0.1h-2.2h-0.1l-0.1,0c-0.1,0-0.2,0-0.5,0c-0.1,0-0.3,0-0.5,0.1c0,0-0.1,0-0.1,0c0,0-0.1,0-0.1,0
		c-0.6,0-0.8,0.2-1,0.2c0,0-0.1,0-0.1,0l-0.2,0l-0.2,0.1c-1.9,1.1-3.4,2.6-4.9,3.8h0l-0.1,0c-0.4,0.1-0.6,0.2-1,0.2
		c-0.1,0-0.2,0-0.3,0l-0.1,0l-0.1,0c-0.6,0.1-1.1,0.4-1.4,0.9c-0.4,0.6-0.5,1.3-0.6,1.8c-0.1,0.2-0.1,0.4-0.2,0.5
		c-0.1,0.1-0.1,0.1-0.1,0.1c-0.1,0-0.2,0-0.3,0c-0.4,0-0.7-0.2-1-0.8c-0.3-0.6-0.5-1.4-0.5-2.2l0-0.1l-0.1-0.1
		c-0.3-0.6-0.9-0.8-1.3-0.9c-0.4-0.1-0.7-0.2-0.7-0.2l-0.4-0.3l-0.4,0.2c-0.6,0.3-1.6,0.5-2.4,1c-2.5,0.7-4.4,2.1-6.2,3.3
		c-0.5,0.4-1.3,0.7-1.8,1.4c-0.6,0.3-1,0.7-1.2,0.9h-0.4l-0.2,0.4c0,0-0.1,0.1-0.3,0.3c-0.2,0.1-0.4,0.3-0.7,0.6
		c-0.1,0.1-0.2,0.1-0.2,0.2l0,0l-0.1,0.1c-0.5,0.4-0.8,0.8-0.9,1.4c0,0.1,0,0.2,0.1,0.3c-1.3,1.7-5.1,5.8-7.8,13.3l0.1,1.2l1.7-0.2
		c0.2,0.1,0.4,0.2,0.7,0.4c0.2,0.1,0.4,0.2,0.6,0.3c0.1,0,0.1,0.1,0.2,0.1c0.1,0.1,0.1,0.1,0.1,0.2c0,0.1,0,0,0,0.1c0,0,0,0,0,0.1
		l0,0.2l0.1,0.2c0.3,0.5,0.3,1.6,1,2.5c0.1,0.1,0.1,0.1,0.1,0.3c0,0.2-0.1,0.6-0.1,1l0,0v0v0.1v0c0,0.1-0.1,0.2-0.2,0.3
		c0,0.1-0.3,0.2-0.8,0.6c-0.3,0.1-0.4,0.3-0.5,0.4l-0.1,0c-1.1,0.7-1.4,1.9-1.4,3c0,0.5,0.1,1,0.1,1.5l0.1,0.6h0.6h0.1
		c0.1,0,0.2,0.2,0.4,0.4c0.2,0.3,0.3,0.6,0.3,0.8c0,0.2-0.1,0.3-0.1,0.3l-0.3,0.2l0,0.4c0,0.6,0.2,0.9,0.1,1.2c0,0.1,0,0.1,0,0.2
		l0,0.2l0.1,0.2c0.2,0.3,0.2,0.6,0.2,0.9c0,0.5-0.3,1.2-0.6,1.9c-0.3,0.7-0.7,1.6-0.7,2.6c0,0,0,0.1,0,0.1l0,0.1l0,0v0
		c0,0.1,0,0.3,0,0.5c0,0.1,0,0.3,0.1,0.5c0.1,0.1,0.2,0.3,0.4,0.4c0.3,1.2,0.8,2.1,1.2,3c0.5,1.1,0.9,2.2,1,3.7l0,0.3l0.2,0.2
		c0.3,0.3,0.5,0.7,0.9,1.1c0.1,0.3,0.3,0.5,0.3,0.6c0,0,0,0,0,0l0,0.3l0.3,0.2c0,0,0.1,0,0.1,0.1c0,0,0,0,0,0.1
		c-0.1,0.2-0.4,0.5-0.7,0.7l-1.2,0.9l1,0.3v0.2l0.3,0.2c0.3,0.2,0.5,0.6,0.9,1.1v0.8l0.5-0.1c0,0,0.1,0.1,0.1,0.1l0.2,0.2l0.3,0
		c0.3,0,0.5,0,0.7,0c0.6,0,1,0,1.2,0.1l0.2,0.4c1.1,1.7,3.8,4.3,7.4,6.7c3.5,2.4,7.8,4.6,12,5.3c1.3,0.2,2.3,0.3,3,0.3
		c0.7,0,1.1-0.1,1.5-0.2c0,0,0,0,0,0c0.2,0.2,0.5,0.4,0.8,0.7l0.1,0.1l0.1,0c0.6,0.3,1.2,0.3,1.8,0.3c0.9,0,1.8-0.2,2.5-0.3l0.1,0
		l0.1,0c1.6-0.7,4-0.5,5.9-1.2c0.4-0.2,0.5-0.2,0.6-0.2l0.2,0l0.2-0.1c1.7-0.7,3.4-1.4,5.2-2c0,0,0.1,0,0.1,0c0.4,0,0.8-0.1,1.1-0.1
		c0.2,0,0.3,0,0.4,0c0.1,0,0.1,0,0.1,0l1.2,1.5v-1.4c0.5-0.1,0.9-0.4,1.2-0.4h0.1h0.2l0.1-0.1c2.9-1.3,5.1-3.4,6.5-6.1l0.2-0.4
		l-0.3-0.4c-0.2-0.2-0.5-0.3-0.7-0.3c-0.4,0-0.6,0.2-0.8,0.3c0-0.1-0.1-0.3-0.2-0.4l-0.4-0.4l-0.5,0.3c-0.4,0.3-1.6,0.8-2.2,0.7
		c-0.3,0-0.5-0.1-0.5-0.1c-0.1-0.1-0.2-0.2-0.2-0.6c0-0.1,0-0.1,0-0.2c0.3-0.2,0.8-0.4,1.3-0.7c0.4-0.2,0.9-0.4,1.3-0.8
		c0.1,0.1,0.3,0.3,0.6,0.3c0.1,0,0.3,0.1,0.4,0.1c0.6,0,1-0.3,1.2-0.5c0.3-0.2,0.4-0.3,0.5-0.4c0.1,0,0.2,0,0.4,0c0.2,0,0.4,0,0.6,0
		c0.2,0,0.5,0,0.7-0.1c3.9-1,6.2-5,7.1-6.8c1.4-3.2,1.9-4.2,2.6-7.1l0,0l0,0c0.8-4.4-0.1-9.1-0.1-9.1L185.8,98.7z"/>
	<path class="st3" d="M135.5,110.2c-0.1-0.7-0.7-1-1.2-1.7c-0.3-0.5-0.4-1.2-0.8-1.4c-0.4-0.3-1,0-1.8-0.3c-1.4-0.4-2-1.4-3-1.2
		c-2.3,0.6,0.4,3.2,0.5,4c0.2,1.9-1.5,3.7-0.1,5.7c0.5,0.7,1.2,0.6,1.6,0.9c1,0.9,1,2.3,2.3,2.5c3.4,0.4,0.8-3.9,1.2-5.9
		C134.3,111.9,135.6,111.6,135.5,110.2"/>
	<path class="st3" d="M174.1,76.8c-0.6,0.1-0.9-0.2-1.6-0.1c-0.7,0.5-1.8,1.6-1.2,2.6"/>
	<path class="st3" d="M157.6,79.8c0,0-2.6,0.9-2.6-0.8c0-1.8-1.9-3.4-0.7-3.3c1.2,0.1,1.4-1.1,2.6,0.2c1.2,1.3,2.5,1.9,2.1,2.7
		C158.7,79.4,157.6,79.8,157.6,79.8"/>
	<path class="st3" d="M159.9,81.5c0,0-1.8,0.6-0.6,1.6c1.2,1,2.5,2.4,2.5,1.3c0-1.1,1.2-2.1,0.3-2.3C161.1,82,160.4,80.9,159.9,81.5
		"/>
	<path class="st4" d="M55.4,95.3c-1-1.9,0.8-5.3,2.9-5.3c1.8,0,2,3.8,0.5,4.7C57.9,95.2,56.5,95.1,55.4,95.3"/>
</g>
</svg>
